<svg xmlns="http://www.w3.org/2000/svg" viewBox="0 0 100 100">
  <defs>
    <!-- A2 하늘 그라디언트의 윗부분 구간만 사용 — 아래쪽이 흰색에 가까워져 심볼이 묻히는 것 방지 -->
    <linearGradient id="sky" x1="0" y1="0" x2="0" y2="100" gradientUnits="userSpaceOnUse">
      <stop offset="0" stop-color="#3F9EE6"/>
      <stop offset="1" stop-color="#85C7F8"/>
    </linearGradient>
    <filter id="soft" x="-30%" y="-30%" width="160%" height="160%">
      <feDropShadow dx="0" dy="2" stdDeviation="2.5" flood-color="#2E7FC2" flood-opacity="0.5"/>
    </filter>
  </defs>
  <rect width="100" height="100" fill="url(#sky)"/>
  <g transform="translate(-7,-2) scale(1.0)" filter="url(#soft)">
    <!-- 얇은 파란 테두리 밑층 — 같은 지오메트리를 1.8 키워서 합집합 바깥으로만 남김 (A2 구름 기법) -->
    <g opacity="0.55">
      <path d="M 63.90 37.04 L 79.26 22.72 M 68.97 50.99 L 90.94 52.14 M 50.66 31.01 L 51.12 18.02 M 36.33 36.80 L 22.67 23.60 M 62.71 64.12 L 70.74 73.04 M 48.01 68.90 L 46.24 85.80 M 31.00 49.67 L 21.00 49.49 M 35.66 62.47 L 22.08 74.28"
        fill="none" stroke="#1B6DB3" stroke-width="7.2" stroke-linecap="round"/>
      <circle cx="79.26" cy="22.72" r="6.8" fill="#1B6DB3"/>
      <circle cx="90.94" cy="52.14" r="8"   fill="#1B6DB3"/>
      <circle cx="51.12" cy="18.02" r="8"   fill="#1B6DB3"/>
      <circle cx="22.67" cy="23.60" r="7"   fill="#1B6DB3"/>
      <rect   x="64.64"  y="66.94"  width="12.2" height="12.2" rx="4.4" fill="#1B6DB3"/>
      <circle cx="46.24" cy="85.80" r="7.2" fill="#1B6DB3"/>
      <rect   x="14.70"  y="43.19"  width="12.6" height="12.6" rx="4.5" fill="#1B6DB3"/>
      <circle cx="22.08" cy="74.28" r="6.6" fill="#1B6DB3"/>
      <circle cx="50"    cy="50"    r="24.8" fill="#1B6DB3"/>
    </g>
    <path d="M 63.90 37.04 L 79.26 22.72 M 68.97 50.99 L 90.94 52.14 M 50.66 31.01 L 51.12 18.02 M 36.33 36.80 L 22.67 23.60 M 62.71 64.12 L 70.74 73.04 M 48.01 68.90 L 46.24 85.80 M 31.00 49.67 L 21.00 49.49 M 35.66 62.47 L 22.08 74.28"
      fill="none" stroke="white" stroke-width="3.6" stroke-linecap="round"/>
    <circle cx="79.26" cy="22.72" r="5"   fill="white"/>
    <circle cx="90.94" cy="52.14" r="6.2" fill="white"/>
    <circle cx="51.12" cy="18.02" r="6.2" fill="white"/>
    <circle cx="22.67" cy="23.60" r="5.2" fill="white"/>
    <rect   x="66.44"  y="68.74"  width="8.6" height="8.6" rx="2.6" fill="white"/>
    <circle cx="46.24" cy="85.80" r="5.4" fill="white"/>
    <rect   x="16.50"  y="44.99"  width="9"   height="9"   rx="2.7" fill="white"/>
    <circle cx="22.08" cy="74.28" r="4.8" fill="white"/>
    <circle cx="50"    cy="50"    r="23"  fill="white"/>
    <ellipse cx="41.5" cy="41.5" rx="7" ry="4.8" transform="rotate(-38 41.5 41.5)" fill="url(#sky)"/>
    <circle  cx="35.8" cy="37.6" r="2" fill="url(#sky)"/>
  </g>
</svg>
